HIERARCHY
ROOT Pelvis
{
	OFFSET 0.000000 0.000000 0.000000
	CHANNELS 6 Xposition Yposition Zposition Zrotation Yrotation Xrotation 
	JOINT Left_hip
	{
		OFFSET 0.069463 -0.088608 -0.009542
		CHANNELS 3 Zrotation Yrotation Xrotation
		JOINT Left_knee
		{
			OFFSET 0.030639 -0.359740 -0.005288
			CHANNELS 3 Zrotation Yrotation Xrotation
			JOINT Left_ankle
			{
				OFFSET -0.011068 -0.376034 -0.042462
				CHANNELS 3 Zrotation Yrotation Xrotation
				JOINT Left_foot
				{
					OFFSET 0.023192 -0.053321 0.111332
					CHANNELS 3 Zrotation Yrotation Xrotation
					End Site
					{
						OFFSET 0.000000 0.000000 0.000000
					}
				}
			}
		}
	}
	JOINT Right_hip
	{
		OFFSET -0.067438 -0.088025 -0.006263
		CHANNELS 3 Zrotation Yrotation Xrotation
		JOINT Right_knee
		{
			OFFSET -0.035962 -0.366229 -0.008063
			CHANNELS 3 Zrotation Yrotation Xrotation
			JOINT Right_ankle
			{
				OFFSET 0.013608 -0.375719 -0.040481
				CHANNELS 3 Zrotation Yrotation Xrotation
				JOINT Right_foot
				{
					OFFSET -0.021034 -0.045527 0.114617
					CHANNELS 3 Zrotation Yrotation Xrotation
					End Site
					{
						OFFSET 0.000000 0.000000 0.000000
					}
				}
			}
		}
	}
	JOINT Spine1
	{
		OFFSET -0.002610 0.101823 -0.019986
		CHANNELS 3 Zrotation Yrotation Xrotation
		JOINT Spine2
		{
			OFFSET 0.004114 0.128714 -0.000938
			CHANNELS 3 Zrotation Yrotation Xrotation
			JOINT Spine3
			{
				OFFSET 0.002191 0.048470 0.027684
				CHANNELS 3 Zrotation Yrotation Xrotation
				JOINT Neck
				{
					OFFSET -0.002856 0.198873 -0.044022
					CHANNELS 3 Zrotation Yrotation Xrotation
					JOINT Head
					{
						OFFSET 0.002981 0.062960 0.049860
						CHANNELS 3 Zrotation Yrotation Xrotation
						End Site
						{
							OFFSET 0.000000 0.000000 0.000000
						}
					}
				}
				JOINT Left_collar
				{
					OFFSET 0.073708 0.112550 -0.033440
					CHANNELS 3 Zrotation Yrotation Xrotation
					JOINT Left_shoulder
					{
						OFFSET 0.083291 0.030786 -0.008013
						CHANNELS 3 Zrotation Yrotation Xrotation
						JOINT Left_elbow
						{
							OFFSET 0.245601 -0.011792 -0.027873
							CHANNELS 3 Zrotation Yrotation Xrotation
							JOINT Left_wrist
							{
								OFFSET 0.232258 0.008622 -0.000487
								CHANNELS 3 Zrotation Yrotation Xrotation
								JOINT Left_palm
								{
									OFFSET 0.077300 -0.009457 -0.012851
									CHANNELS 3 Zrotation Yrotation Xrotation
									End Site
									{
										OFFSET 0.000000 0.000000 0.000000
									}
								}
							}
						}
					}
				}
				JOINT Right_collar
				{
					OFFSET -0.075339 0.110574 -0.037874
					CHANNELS 3 Zrotation Yrotation Xrotation
					JOINT Right_shoulder
					{
						OFFSET -0.086522 0.031207 -0.009986
						CHANNELS 3 Zrotation Yrotation Xrotation
						JOINT Right_elbow
						{
							OFFSET -0.237313 -0.011478 -0.019859
							CHANNELS 3 Zrotation Yrotation Xrotation
							JOINT Right_wrist
							{
								OFFSET -0.237599 0.007976 -0.003742
								CHANNELS 3 Zrotation Yrotation Xrotation
								JOINT Right_palm
								{
									OFFSET -0.076920 -0.006943 -0.009920
									CHANNELS 3 Zrotation Yrotation Xrotation
									End Site
									{
										OFFSET 0.000000 0.000000 0.000000
									}
								}
							}
						}
					}
				}
			}
		}
	}
}
MOTION
Frames: 6
Frame Time: 0.100000
0.058878 -0.011001 0.088108 179.221540 -4.164540 -32.739894 5.535940 13.117424 32.425559 -4.934139 -9.228409 -2.226698 1.196461 12.537923 -6.325791 -3.296154 -4.474038 -3.901601 -13.776115 -18.014298 31.829636 -0.469888 -12.116166 38.028430 19.091242 -6.195600 48.765120 10.911911 -14.473282 -11.879953 -6.079555 2.258987 12.945745 -1.024398 -2.909224 3.223374 -0.179782 -1.052112 1.252666 -7.953169 -18.343973 8.443417 6.407608 -10.657067 -3.561712 -10.462255 14.187103 8.002605 -41.003950 8.974532 21.417655 -103.024780 -64.447159 147.535268 53.730598 -23.242908 -6.277726 -15.900517 -3.849931 -16.171458 19.326231 -4.414560 -1.409026 63.706808 -9.585605 7.911610 -5.783746 10.162513 -9.518538 -46.751383 11.203515 16.679489 18.925849 12.640523 -14.480017 
0.060653 -0.007757 0.080075 178.447375 -0.198523 -32.845444 6.193051 12.507935 31.788104 -5.172232 -11.912625 -1.715122 0.969669 11.534322 -7.008799 -3.284741 -4.115376 -4.199321 -14.018337 -17.227781 28.505469 -0.634185 -10.542466 47.422277 19.829923 -4.790325 48.742615 12.726676 -15.118278 -13.706293 -6.206099 2.037530 15.098490 -1.319189 -2.313083 3.363843 -0.505487 -0.875446 0.968498 -8.738293 -17.075215 7.502277 5.158141 -10.692572 -4.305071 -10.512119 13.618055 7.622627 -40.356871 8.745421 21.768393 -104.420493 -64.442847 148.992792 53.844909 -23.454770 -6.480557 -15.748155 -3.473087 -16.275400 19.473611 -3.224835 -1.328286 63.656762 -8.672000 8.414939 -5.949409 10.150927 -10.029082 -46.717254 11.342696 16.909254 18.788910 12.499050 -14.648628 
0.067288 -0.006691 0.067018 177.016733 3.797079 -32.678231 5.962542 11.160614 30.657093 -3.865041 -14.431226 -2.849816 0.641375 11.768258 -6.029850 -2.466274 -4.540886 -4.490395 -12.370998 -16.241978 23.328701 -1.049683 -10.137966 52.690977 18.015843 -4.405441 47.574744 14.181592 -16.027328 -13.588698 -5.884240 1.305798 16.955587 -1.435151 -2.018787 2.721297 -0.543588 -0.978803 1.172686 -10.195548 -16.539534 7.745128 4.403223 -10.587416 -4.792555 -9.866270 12.688831 7.808444 -40.500292 8.676594 22.363446 -103.257565 -64.361498 147.979930 54.196990 -23.257190 -6.520165 -15.470115 -3.205391 -16.958507 18.506880 -2.216054 -1.186670 64.159988 -8.024025 8.950245 -6.473282 10.647754 -9.584237 -46.690899 11.459780 16.617358 17.973457 12.070574 -14.966553 
0.071916 0.005264 0.056154 176.452286 8.044711 -33.289397 0.394553 6.948126 30.257935 -0.159711 -16.980341 -4.607930 4.958511 16.847643 -4.798124 -4.454267 -4.295372 -2.821359 -10.584861 -13.829102 20.567137 -0.234691 -8.775245 46.442620 18.401844 -4.963182 49.382356 13.637739 -16.634686 -10.526409 -5.865214 1.683479 18.728308 -1.568682 -1.860594 3.021858 -0.536765 -0.894027 1.811113 -10.817207 -16.599345 7.010222 4.337887 -11.443385 -6.050166 -10.139410 11.452428 7.484111 -39.576922 7.879961 24.277981 -102.677045 -64.688027 146.160812 55.082588 -22.419570 -6.609751 -16.393263 -3.327986 -16.946319 18.992735 -1.153263 -1.778912 63.325543 -8.275818 10.340077 -7.120932 10.629980 -11.825823 -47.930208 10.987368 15.866859 18.892080 12.563550 -16.714760 
0.075669 0.012993 0.049403 177.560063 11.390288 -35.286262 -2.046177 5.878462 32.766624 0.868627 -20.271624 -6.451564 6.240208 18.524148 -3.263645 -4.901508 -2.913604 -3.940196 -9.239547 -10.355949 17.228680 0.119093 -5.030709 57.227696 15.940687 -2.885469 43.747283 16.952983 -16.953312 -11.198542 -5.870010 1.036704 20.602634 -2.605389 -0.445029 4.154065 -1.695007 -0.534398 1.946421 -10.899752 -15.350007 7.030713 2.525648 -12.262617 -5.808496 -11.037075 11.150305 6.898226 -37.438309 7.409951 25.150165 -108.007547 -65.508663 151.515349 55.116847 -22.746987 -5.683663 -15.457432 -1.828108 -17.020231 19.678686 0.513872 -1.589545 64.270220 -8.111174 11.841248 -7.269150 10.155201 -13.252789 -47.878012 10.031829 14.876859 17.309362 11.239580 -16.902266 
0.080902 0.016182 0.041303 177.282235 15.124559 -36.219260 -5.087962 4.143573 32.109729 2.734738 -21.870915 -5.228053 8.113673 20.069327 -2.008987 -6.868553 -3.719473 -4.034841 -5.772832 -7.816797 12.961407 -0.540219 -3.411611 66.945943 12.952633 -1.575429 42.489525 21.503082 -18.122525 -11.875370 -5.158991 -0.048358 22.986852 -2.260375 0.074844 2.636230 -1.593221 -0.568849 1.836776 -12.120893 -15.894763 7.684119 1.367624 -11.724484 -6.313878 -12.056684 11.338533 6.368797 -37.786134 7.848415 25.465761 -106.457169 -66.593288 150.153812 54.113271 -22.604158 -4.722421 -14.592156 -1.527320 -17.296019 20.202744 1.030655 -1.545379 63.528437 -8.279453 12.527897 -7.920720 10.146598 -13.239101 -48.482383 9.856080 14.392381 16.118010 10.604588 -16.432382 
